<?xml version="1.0" encoding="UTF-8"?><svg id="Capa_2" xmlns="http://www.w3.org/2000/svg" viewBox="0 0 120.54 67.61"><defs><style>.cls-1{fill:#000;stroke-width:0px;}</style></defs><g id="Capa_2-2"><path class="cls-1" d="M20.74,2.34c.32-.11,1.39-.17,3.2-.17s2.93.06,3.36.17c4.11.78,8.19,2.6,12.25,5.46,1.28.9,2.93,2.07,4.96,3.53,2.99,2.13,5.66,3.53,8.01,4.2,1.97.62,3.28,1.29,3.92,2.02,1.07,1.4,1.6,3.14,1.6,5.21,0,1.62-.29,3.05-.88,4.28-.8,1.85-2,3.16-3.6,3.95-1.17.56-2.24.84-3.2.84-1.92,0-4.19-.9-6.81-2.69-.69-.5-1.9-1.71-3.6-3.61-3.04-3.3-5.18-5.53-6.41-6.68-1.23-1.15-2.48-2.11-3.76-2.9-2.19-1.29-4.32-1.93-6.41-1.93-.53,0-.91.03-1.12.08-1.92.34-3.88,1.34-5.89,3.02-2,1.68-3.3,3.44-3.88,5.29-.53,1.4-.8,2.91-.8,4.54,0,1.06.19,2.59.56,4.58.37,1.99.77,3.54,1.2,4.66,1.33,3.42,3.12,6.5,5.36,9.24,2.08,2.47,4.6,4.45,7.57,5.96,2.96,1.51,5.81,2.27,8.53,2.27,2.19,0,4.02-.5,5.48-1.51,1.47-1.01,3.03-2.8,4.68-5.38,2.56-3.98,4.8-5.96,6.73-5.96.43,0,.96.14,1.6.42,1.92.95,2.88,3.05,2.88,6.3,0,.9-.05,1.6-.16,2.1-.27,1.9-.85,3.81-1.76,5.71-1.28,2.69-3.15,5.03-5.6,7.01-2.46,1.99-5.23,3.4-8.33,4.24-2.51.67-4.96,1.01-7.37,1.01-3.47,0-6.78-.67-9.93-2.02-7.37-3.19-13.4-8.51-18.09-15.96-1.82-2.91-3.11-5.68-3.88-8.32-.77-2.63-1.16-5.6-1.16-8.9,0-4.76.83-9.35,2.48-13.78,2.4-6.61,6.08-11.17,11.05-13.69,2.19-1.18,4.06-1.9,5.6-2.18.16-.06.44-.14.84-.25.4-.11.65-.17.76-.17Z"/><path class="cls-1" d="M98.6,6.55c1.28-1.74,3.11-3.26,5.48-4.58,2.37-1.31,4.71-1.97,7.01-1.97,2.56,0,4.67.87,6.32,2.6,1.92,2.02,2.96,4.68,3.12,7.98v1.26c0,4.65-1.04,7.22-3.12,7.73-.43.11-.72.17-.88.17-.32,0-.88-.11-1.68-.34-1.07-.28-1.87-.42-2.4-.42-1.07,0-2.14.59-3.2,1.76-1.12,1.34-1.71,2.97-1.76,4.87v.92c0,.78.13,1.62.4,2.52.48,1.51,1.84,4.09,4.08,7.73,2.56,4.14,4.16,8.01,4.8,11.59.16,1.29.24,2.52.24,3.7,0,5.49-1.28,9.58-3.84,12.26-1.92,2.07-4.43,3.11-7.53,3.11h-.72c-2.62-.17-5.07-1.34-7.37-3.53-2.67-2.52-5.23-7.59-7.69-15.2-.91-2.86-1.63-4.28-2.16-4.28-.59,0-1.76,1.82-3.52,5.46-2.4,5.04-4.83,8.99-7.29,11.84-1.76,2.02-3.55,3.53-5.36,4.54-.96.5-1.9.78-2.8.84h-.48c-3.63,0-5.93-1.71-6.89-5.12-.21-.78-.32-1.99-.32-3.61,0-.95.08-1.99.24-3.11.16-1.12.32-2.04.48-2.77.16-.73.4-1.72.72-2.98.32-1.26.51-2.06.56-2.39.16-.67.4-1.6.72-2.77,1.65-6.27,2.48-11.06,2.48-14.36,0-4.2-1.15-8.01-3.44-11.42-1.92-2.8-3.15-4.8-3.68-6.01-.53-1.2-.8-2.51-.8-3.91,0-1.23.16-2.16.48-2.77.91-1.74,2.35-3.08,4.32-4.03,1.71-.9,3.63-1.34,5.76-1.34,3.04,0,5.6,1.18,7.69,3.53,2.19,2.46,3.28,5.85,3.28,10.16,0,2.52-.27,4.86-.8,7.01-.53,2.16-1.6,5.19-3.2,9.11-2.62,6.38-4.22,11-4.8,13.86-.27,1.57-.4,2.86-.4,3.86,0,3.3.67,4.96,2,4.96.53,0,1.16-.41,1.88-1.22.72-.81,1.37-1.81,1.96-2.98.75-1.57,1.57-4.23,2.48-7.98,1.01-4.25,1.84-7.07,2.48-8.44.64-1.37,1.57-2.45,2.8-3.23.75-.45,1.55-.67,2.4-.67.91,0,1.6.2,2.08.59,2.45,1.96,4.94,6.41,7.45,13.36,2.19,6.05,4.14,9.88,5.84,11.51,1.07,1.01,1.87,1.51,2.4,1.51.48,0,.93-.28,1.36-.84.32-.45.48-1.37.48-2.77s-.19-2.63-.56-3.86c-.69-2.18-2.38-5.4-5.04-9.66-2.94-4.65-4.8-8.2-5.6-10.67-.59-1.9-.88-4.09-.88-6.55,0-5.71,1.47-10.56,4.4-14.53Z"/></g></svg>